<mxfile host="65bd71144e">
    <diagram id="FISShYL5WxdU9tI8w1Jn" name="第 1 页">
        <mxGraphModel dx="2383" dy="2025" grid="1" gridSize="10" guides="1" tooltips="1" connect="1" arrows="1" fold="1" page="0" pageScale="1" pageWidth="827" pageHeight="1169" background="none" math="0" shadow="0">
            <root>
                <mxCell id="0"/>
                <mxCell id="1" parent="0"/>
                <mxCell id="26" style="edgeStyle=none;html=1;entryX=0.5;entryY=0;entryDx=0;entryDy=0;strokeWidth=7;fontSize=27;fillColor=#d80073;strokeColor=#A50040;" edge="1" parent="1" source="6" target="19">
                    <mxGeometry relative="1" as="geometry"/>
                </mxCell>
                <mxCell id="27" style="edgeStyle=none;html=1;entryX=0.5;entryY=0;entryDx=0;entryDy=0;strokeWidth=7;fontSize=27;fillColor=#d80073;strokeColor=#A50040;" edge="1" parent="1" source="6" target="22">
                    <mxGeometry relative="1" as="geometry"/>
                </mxCell>
                <mxCell id="29" style="edgeStyle=none;html=1;entryX=0.5;entryY=0;entryDx=0;entryDy=0;strokeWidth=7;fontSize=27;fillColor=#d80073;strokeColor=#A50040;" edge="1" parent="1" source="6" target="23">
                    <mxGeometry relative="1" as="geometry"/>
                </mxCell>
                <mxCell id="6" value="&lt;font style=&quot;font-size: 27px;&quot;&gt;PC/Mobile APP&lt;/font&gt;" style="whiteSpace=wrap;html=1;strokeWidth=3;perimeterSpacing=1;" vertex="1" parent="1">
                    <mxGeometry x="40" y="240" width="240" height="80" as="geometry"/>
                </mxCell>
                <mxCell id="30" style="edgeStyle=none;html=1;entryX=0.5;entryY=0;entryDx=0;entryDy=0;strokeWidth=7;fontSize=27;fillColor=#60a917;strokeColor=#2D7600;" edge="1" parent="1" source="9" target="19">
                    <mxGeometry relative="1" as="geometry"/>
                </mxCell>
                <mxCell id="31" style="edgeStyle=none;html=1;strokeWidth=7;fontSize=27;fillColor=#60a917;strokeColor=#2D7600;" edge="1" parent="1" source="9" target="22">
                    <mxGeometry relative="1" as="geometry"/>
                </mxCell>
                <mxCell id="32" style="edgeStyle=none;html=1;entryX=0.431;entryY=-0.002;entryDx=0;entryDy=0;entryPerimeter=0;strokeWidth=7;fontSize=27;fillColor=#60a917;strokeColor=#2D7600;" edge="1" parent="1" source="9" target="23">
                    <mxGeometry relative="1" as="geometry"/>
                </mxCell>
                <mxCell id="9" value="&lt;span style=&quot;font-size: 27px;&quot;&gt;第三方聊天软件&lt;/span&gt;" style="whiteSpace=wrap;html=1;strokeWidth=3;perimeterSpacing=1;" vertex="1" parent="1">
                    <mxGeometry x="320" y="240" width="240" height="80" as="geometry"/>
                </mxCell>
                <mxCell id="33" style="edgeStyle=none;html=1;entryX=0.5;entryY=0;entryDx=0;entryDy=0;strokeWidth=7;fontSize=27;fillColor=#1ba1e2;strokeColor=#006EAF;" edge="1" parent="1" source="10" target="22">
                    <mxGeometry relative="1" as="geometry"/>
                </mxCell>
                <mxCell id="10" value="&lt;span style=&quot;font-size: 27px;&quot;&gt;VOIP电话&lt;/span&gt;" style="whiteSpace=wrap;html=1;strokeWidth=3;perimeterSpacing=1;" vertex="1" parent="1">
                    <mxGeometry x="600" y="240" width="240" height="80" as="geometry"/>
                </mxCell>
                <mxCell id="34" style="edgeStyle=none;html=1;entryX=0.5;entryY=0;entryDx=0;entryDy=0;strokeWidth=7;fontSize=27;fillColor=#6a00ff;strokeColor=#3700CC;" edge="1" parent="1" source="11" target="19">
                    <mxGeometry relative="1" as="geometry"/>
                </mxCell>
                <mxCell id="11" value="&lt;span style=&quot;font-size: 27px;&quot;&gt;定时任务触发&lt;/span&gt;" style="whiteSpace=wrap;html=1;strokeWidth=3;perimeterSpacing=1;" vertex="1" parent="1">
                    <mxGeometry x="880" y="240" width="240" height="80" as="geometry"/>
                </mxCell>
                <mxCell id="14" style="edgeStyle=none;html=1;entryX=0.5;entryY=0;entryDx=0;entryDy=0;fontSize=27;strokeWidth=7;" edge="1" parent="1" source="12" target="6">
                    <mxGeometry relative="1" as="geometry"/>
                </mxCell>
                <mxCell id="15" style="edgeStyle=none;html=1;fontSize=27;strokeWidth=7;" edge="1" parent="1" source="12" target="9">
                    <mxGeometry relative="1" as="geometry"/>
                </mxCell>
                <mxCell id="16" style="edgeStyle=none;html=1;entryX=0.5;entryY=0;entryDx=0;entryDy=0;fontSize=27;strokeWidth=7;" edge="1" parent="1" source="12" target="10">
                    <mxGeometry relative="1" as="geometry"/>
                </mxCell>
                <mxCell id="12" value="&lt;span style=&quot;font-size: 27px;&quot;&gt;用户选择&lt;/span&gt;" style="whiteSpace=wrap;html=1;strokeWidth=3;perimeterSpacing=1;" vertex="1" parent="1">
                    <mxGeometry x="320" y="40" width="240" height="80" as="geometry"/>
                </mxCell>
                <mxCell id="17" style="edgeStyle=none;html=1;fontSize=27;strokeWidth=3;" edge="1" parent="1" source="13" target="11">
                    <mxGeometry relative="1" as="geometry"/>
                </mxCell>
                <mxCell id="13" value="&lt;span style=&quot;font-size: 27px;&quot;&gt;系统自动触发&lt;/span&gt;" style="whiteSpace=wrap;html=1;strokeWidth=3;perimeterSpacing=1;" vertex="1" parent="1">
                    <mxGeometry x="880" y="40" width="240" height="80" as="geometry"/>
                </mxCell>
                <mxCell id="18" value="统一通信网关UCG" style="rhombus;whiteSpace=wrap;html=1;strokeWidth=3;fontSize=27;" vertex="1" parent="1">
                    <mxGeometry x="400" y="1050" width="480" height="480" as="geometry"/>
                </mxCell>
                <mxCell id="41" style="edgeStyle=orthogonalEdgeStyle;html=1;entryX=0;entryY=0.5;entryDx=0;entryDy=0;strokeWidth=7;fontSize=27;fillColor=#d5e8d4;strokeColor=#82b366;" edge="1" parent="1" source="19" target="18">
                    <mxGeometry relative="1" as="geometry">
                        <Array as="points">
                            <mxPoint x="120" y="1290"/>
                        </Array>
                    </mxGeometry>
                </mxCell>
                <mxCell id="19" value="&lt;font style=&quot;font-size: 27px;&quot;&gt;文字&lt;/font&gt;" style="whiteSpace=wrap;html=1;strokeWidth=3;perimeterSpacing=1;" vertex="1" parent="1">
                    <mxGeometry x="40" y="520" width="160" height="80" as="geometry"/>
                </mxCell>
                <mxCell id="45" style="edgeStyle=orthogonalEdgeStyle;html=1;entryX=0.5;entryY=0;entryDx=0;entryDy=0;strokeWidth=7;fontSize=27;" edge="1" parent="1" source="20" target="43">
                    <mxGeometry relative="1" as="geometry"/>
                </mxCell>
                <mxCell id="20" value="&lt;font style=&quot;font-size: 27px;&quot;&gt;实时语音&lt;/font&gt;" style="whiteSpace=wrap;html=1;strokeWidth=3;perimeterSpacing=1;" vertex="1" parent="1">
                    <mxGeometry x="520" y="680" width="160" height="80" as="geometry"/>
                </mxCell>
                <mxCell id="44" style="edgeStyle=orthogonalEdgeStyle;html=1;entryX=0.5;entryY=0;entryDx=0;entryDy=0;strokeWidth=7;fontSize=27;" edge="1" parent="1" source="21" target="42">
                    <mxGeometry relative="1" as="geometry"/>
                </mxCell>
                <mxCell id="21" value="&lt;span style=&quot;font-size: 27px;&quot;&gt;语音块&lt;/span&gt;" style="whiteSpace=wrap;html=1;strokeWidth=3;perimeterSpacing=1;" vertex="1" parent="1">
                    <mxGeometry x="280" y="680" width="160" height="80" as="geometry"/>
                </mxCell>
                <mxCell id="37" style="edgeStyle=orthogonalEdgeStyle;html=1;entryX=0.5;entryY=0;entryDx=0;entryDy=0;strokeWidth=7;fontSize=27;" edge="1" parent="1" source="22" target="21">
                    <mxGeometry relative="1" as="geometry"/>
                </mxCell>
                <mxCell id="38" style="edgeStyle=orthogonalEdgeStyle;html=1;strokeWidth=7;fontSize=27;" edge="1" parent="1" source="22" target="20">
                    <mxGeometry relative="1" as="geometry"/>
                </mxCell>
                <mxCell id="22" value="&lt;font style=&quot;font-size: 27px;&quot;&gt;音频&lt;/font&gt;" style="whiteSpace=wrap;html=1;strokeWidth=3;perimeterSpacing=1;" vertex="1" parent="1">
                    <mxGeometry x="400" y="520" width="160" height="80" as="geometry"/>
                </mxCell>
                <mxCell id="39" style="edgeStyle=orthogonalEdgeStyle;html=1;entryX=0.5;entryY=0;entryDx=0;entryDy=0;strokeWidth=7;fontSize=27;" edge="1" parent="1" source="23" target="25">
                    <mxGeometry relative="1" as="geometry"/>
                </mxCell>
                <mxCell id="40" style="edgeStyle=orthogonalEdgeStyle;html=1;strokeWidth=7;fontSize=27;" edge="1" parent="1" source="23" target="24">
                    <mxGeometry relative="1" as="geometry"/>
                </mxCell>
                <mxCell id="23" value="&lt;font style=&quot;font-size: 27px;&quot;&gt;文件&lt;/font&gt;" style="whiteSpace=wrap;html=1;strokeWidth=3;perimeterSpacing=1;" vertex="1" parent="1">
                    <mxGeometry x="880" y="520" width="160" height="80" as="geometry"/>
                </mxCell>
                <mxCell id="50" style="edgeStyle=orthogonalEdgeStyle;html=1;entryX=1;entryY=0;entryDx=0;entryDy=0;strokeWidth=7;fontSize=27;endArrow=classic;endFill=1;fillColor=#dae8fc;strokeColor=#6c8ebf;" edge="1" parent="1" source="24" target="18">
                    <mxGeometry relative="1" as="geometry">
                        <Array as="points">
                            <mxPoint x="1080" y="920"/>
                            <mxPoint x="760" y="920"/>
                        </Array>
                    </mxGeometry>
                </mxCell>
                <mxCell id="24" value="&lt;span style=&quot;font-size: 27px;&quot;&gt;不可解释文件&lt;/span&gt;" style="whiteSpace=wrap;html=1;strokeWidth=3;perimeterSpacing=1;" vertex="1" parent="1">
                    <mxGeometry x="1000" y="680" width="160" height="80" as="geometry"/>
                </mxCell>
                <mxCell id="48" style="edgeStyle=orthogonalEdgeStyle;html=1;entryX=1;entryY=0;entryDx=0;entryDy=0;strokeWidth=7;fontSize=27;endArrow=classic;endFill=1;fillColor=#dae8fc;strokeColor=#6c8ebf;" edge="1" parent="1" source="25" target="18">
                    <mxGeometry relative="1" as="geometry">
                        <Array as="points">
                            <mxPoint x="840" y="920"/>
                            <mxPoint x="760" y="920"/>
                        </Array>
                    </mxGeometry>
                </mxCell>
                <mxCell id="25" value="&lt;span style=&quot;font-size: 27px;&quot;&gt;可解释文件&lt;/span&gt;" style="whiteSpace=wrap;html=1;strokeWidth=3;perimeterSpacing=1;" vertex="1" parent="1">
                    <mxGeometry x="760" y="680" width="160" height="80" as="geometry"/>
                </mxCell>
                <mxCell id="46" style="edgeStyle=orthogonalEdgeStyle;html=1;strokeWidth=7;fontSize=27;endArrow=none;endFill=0;fillColor=#d5e8d4;strokeColor=#82b366;" edge="1" parent="1" source="42">
                    <mxGeometry relative="1" as="geometry">
                        <mxPoint x="120" y="990" as="targetPoint"/>
                    </mxGeometry>
                </mxCell>
                <mxCell id="42" value="&lt;span style=&quot;font-size: 27px;&quot;&gt;录音转文字&lt;/span&gt;" style="whiteSpace=wrap;html=1;strokeWidth=3;perimeterSpacing=1;" vertex="1" parent="1">
                    <mxGeometry x="280" y="840" width="160" height="80" as="geometry"/>
                </mxCell>
                <mxCell id="47" style="edgeStyle=orthogonalEdgeStyle;html=1;strokeWidth=7;fontSize=27;endArrow=none;endFill=0;fillColor=#d5e8d4;strokeColor=#82b366;" edge="1" parent="1" source="43">
                    <mxGeometry relative="1" as="geometry">
                        <mxPoint x="120" y="1250" as="targetPoint"/>
                        <Array as="points">
                            <mxPoint x="600" y="1040"/>
                            <mxPoint x="120" y="1040"/>
                        </Array>
                    </mxGeometry>
                </mxCell>
                <mxCell id="43" value="&lt;span style=&quot;font-size: 27px;&quot;&gt;音频流实时转文字&lt;/span&gt;" style="whiteSpace=wrap;html=1;strokeWidth=3;perimeterSpacing=1;" vertex="1" parent="1">
                    <mxGeometry x="520" y="840" width="160" height="80" as="geometry"/>
                </mxCell>
            </root>
        </mxGraphModel>
    </diagram>
</mxfile>